<svg xmlns="http://www.w3.org/2000/svg" version="1.1" xmlns:xlink="http://www.w3.org/1999/xlink" xmlns:svgjs="http://svgjs.dev/svgjs" width="1440" height="560" preserveAspectRatio="none" viewBox="0 0 1440 560"><g mask="url(&quot;#SvgjsMask1074&quot;)" fill="none"><rect width="1440" height="560" x="0" y="0" fill="rgba(0, 119, 182, 1)"></rect><path d="M1560 560L0 560 L0 243.25Q5.86 177.11, 72 182.97Q107.65 98.62, 192 134.26Q240.46 110.72, 264 159.18Q336.33 111.51, 384 183.85Q451.18 179.03, 456 246.21Q505.73 175.94, 576 225.67Q575.01 152.69, 648 151.7Q675 106.69, 720 133.69Q770.43 112.13, 792 162.56Q805.03 103.59, 864 116.63Q906.62 87.25, 936 129.87Q990.38 112.25, 1008 166.62Q1071.9 158.52, 1080 222.42Q1126.23 196.65, 1152 242.89Q1170.7 189.59, 1224 208.29Q1266.04 178.33, 1296 220.37Q1307.7 160.07, 1368 171.77Q1390.44 122.21, 1440 144.65Q1523.05 107.7, 1560 190.75z" fill="rgba(0, 180, 216, 1)"></path><path d="M1560 560L0 560 L0 237.13Q62.06 227.19, 72 289.25Q151.14 248.39, 192 327.53Q222.49 238.02, 312 268.51Q359.1 243.61, 384 290.7Q436.94 271.63, 456 324.57Q491.18 239.75, 576 274.92Q612.61 191.53, 696 228.13Q765.92 178.05, 816 247.97Q888.11 200.07, 936 272.18Q999.71 263.89, 1008 327.6Q1025.64 225.25, 1128 242.89Q1180.91 175.8, 1248 228.71Q1298.94 207.65, 1320 258.59Q1408.17 226.76, 1440 314.94Q1455.05 209.99, 1560 225.03z" fill="rgba(144, 224, 239, 1)"></path><path d="M1488 560L0 560 L0 403.15Q62.09 393.24, 72 455.32Q116 379.31, 192 423.31Q260.71 372.02, 312 440.74Q331.36 340.1, 432 359.45Q461.11 316.56, 504 345.67Q611.16 332.84, 624 440Q669.59 413.59, 696 459.17Q705.97 397.13, 768 407.1Q805.26 324.36, 888 361.62Q931.43 333.06, 960 376.49Q1019.01 363.5, 1032 422.51Q1052.81 323.31, 1152 344.12Q1193.22 313.34, 1224 354.56Q1277.38 335.94, 1296 389.33Q1377.02 350.35, 1416 431.36Q1463.04 406.4, 1488 453.45z" fill="rgba(202, 240, 248, 1)"></path><path d="M1560 560L0 560 L0 524.09Q41.36 493.45, 72 534.81Q92.88 483.69, 144 504.58Q179.8 420.38, 264 456.17Q333.48 405.65, 384 475.14Q465.61 436.75, 504 518.36Q584.86 479.22, 624 560.08Q653.89 517.98, 696 547.87Q688.48 468.35, 768 460.83Q798.86 419.69, 840 450.54Q937.07 427.62, 960 524.69Q1004.68 497.38, 1032 542.06Q1121.94 512, 1152 601.95Q1174.26 552.21, 1224 574.47Q1200.91 479.38, 1296 456.29Q1335.83 424.12, 1368 463.95Q1444.6 468.54, 1440 545.14Q1520.19 505.33, 1560 585.52z" fill="white"></path></g><defs><mask id="SvgjsMask1074"><rect width="1440" height="560" fill="#ffffff"></rect></mask></defs></svg>