<svg xmlns="http://www.w3.org/2000/svg" version="1.1" xmlns:xlink="http://www.w3.org/1999/xlink" xmlns:svgjs="http://svgjs.dev/svgjs" width="1920" height="1080" preserveAspectRatio="none" viewBox="0 0 1920 1080"><g mask="url(&quot;#SvgjsMask1044&quot;)" fill="none"><rect width="1920" height="1080" x="0" y="0" fill="rgba(0, 119, 182, 1)"></rect><path d="M 0,249 C 96,277.2 288,402.2 480,390 C 672,377.8 768,193.8 960,188 C 1152,182.2 1248,371.2 1440,361 C 1632,350.8 1824,181.8 1920,137L1920 1080L0 1080z" fill="rgba(0, 180, 216, 1)"></path><path d="M 0,786 C 128,812 384,921.4 640,916 C 896,910.6 1024,748.2 1280,759 C 1536,769.8 1792,927.8 1920,970L1920 1080L0 1080z" fill="rgba(144, 224, 239, 1)"></path></g><defs><mask id="SvgjsMask1044"><rect width="1920" height="1080" fill="#ffffff"></rect></mask></defs></svg>